<?xml version="1.0" encoding="utf-8"?>
<!-- Generator: Adobe Illustrator 26.5.0, SVG Export Plug-In . SVG Version: 6.00 Build 0)  -->
<svg version="1.1" xmlns="http://www.w3.org/2000/svg" xmlns:xlink="http://www.w3.org/1999/xlink" x="0px" y="0px"
	 viewBox="0 0 100 130" style="enable-background:new 0 0 100 130;" xml:space="preserve">
<style type="text/css">
	.st0{fill:#333333;}
	.st1{fill:#4D4D4D;}
	.st2{fill:#F8C09D;}
	.st3{fill:none;stroke:#EF937E;stroke-width:4.5315;stroke-linecap:round;stroke-miterlimit:10;}
</style>
<g id="run">
	<g>
		<path class="st0" d="M38,61.7l1.3,3.3l6.5-2.6c0,0-0.8-1.4-2.5-1s-2.7,1.8-2.7,1.8l-1.1-2.1L38,61.7z"/>
		<path class="st1" d="M37.4,62.2l3.2-1.6c0,0-1.9-5.1-4.1-10.2c-3.2-7.1-13.1-9.8-13.1-9.8L21.9,44c0,0,8.4,2.1,11.1,7.4
			C35.7,56.4,37.4,62.2,37.4,62.2z"/>
		<path class="st0" d="M6.3,50.4l-3.2-1.6L0,55.1c0,0,1.5,0.5,2.6-0.9c1-1.4,0.8-3.1,0.8-3.1L5.6,52L6.3,50.4z"/>
		<path class="st0" d="M6.6,49.4l-1.4,3c0,0,11.2,4.9,14.5-1.4c2.9-5.4,5.8-11.7,5.8-11.7L22.3,38c0,0-2.8,6.2-5.9,11.9
			C14.7,52.9,6.6,49.4,6.6,49.4z"/>
		<path class="st1" d="M23.4,44.4h-0.1c-3.6-0.6-6-4-5.4-7.5l0,0l13,2.1l0,0C30.3,42.6,27,45,23.4,44.4z"/>
		<path class="st1" d="M27.9,20.3L27.9,20.3c3.2,0.5,5.4,3.6,4.9,6.9c0,0-2.4,3.9-1.9,11.9c0,0.2-13-2.1-13-2.1l0.1-1
			c0.6-5.4,2.5-11,4.4-14C23.4,20.4,26.3,20,27.9,20.3z"/>
		<path class="st1" d="M29.2,22.9L29.2,22.9c-0.4,0.7-0.2,1.7,0.5,2.2c0,0,1.9,3.5,6.6,6.3s7.7,2.3,7.7,2.3c0.7,0.4,1.7,0.2,2.2-0.5
			l0,0c0.4-0.7,0.2-1.7-0.5-2.2c0,0-3,0.6-7.8-2.4s-6.5-6.2-6.5-6.2C30.6,21.9,29.6,22.1,29.2,22.9z"/>
		<g>
			<path class="st2" d="M45.1,33.3l-0.2,1l3,0.7c0.3,0.1,0.5-0.1,0.6-0.4l0,0c0.1-0.3-0.1-0.5-0.4-0.6L45.1,33.3z"/>
			<path class="st2" d="M45.3,32.3l-0.2,1l3.6,0.7c0.3,0.1,0.5-0.1,0.6-0.4l0,0c0.1-0.3-0.1-0.5-0.4-0.6L45.3,32.3z"/>
			<path class="st2" d="M45.8,31.5l-0.1,1l3.7,0.3c0.3,0,0.5-0.2,0.5-0.4l0,0c0-0.3-0.2-0.5-0.4-0.5L45.8,31.5z"/>
			<path class="st2" d="M45.4,30.8l0.1,1l3.7-0.4c0.3,0,0.5-0.3,0.4-0.5l0,0c0-0.3-0.3-0.5-0.5-0.4L45.4,30.8z"/>
			<path class="st2" d="M44.8,30.6l0.5,0.8l1.9-1.2c0.2-0.2,0.3-0.4,0.2-0.7l0,0c-0.2-0.2-0.4-0.3-0.7-0.2L44.8,30.6z"/>
			<path class="st2" d="M45.4,30.4l0.8,0.1c0.2,0,0.3,0.1,0.2,0.3l-0.3,3.4c0,0.2-0.1,0.3-0.3,0.2L45,34.3c-0.5,0-0.9-0.5-0.9-1.1
				l0.2-2C44.3,30.7,44.8,30.3,45.4,30.4z"/>
		</g>
		<path class="st1" d="M10.1,32.4L10.1,32.4c0.5,0.7,1.5,0.9,2.2,0.4c0,0,2.4-4.4,4.9-6.2s8.2-3.1,8.2-3.1c0.7-0.5,0.9-1.5,0.4-2.2
			l0,0c-0.5-0.7-1.5-0.9-2.2-0.4c0,0-5.6,1.2-8.2,3s-5,6.2-5,6.2C9.8,30.6,9.6,31.6,10.1,32.4z"/>
		<g>
			<path class="st2" d="M9.9,31.7l-0.6-0.8l-2.4,1.9c-0.2,0.2-0.2,0.5-0.1,0.7l0,0c0.2,0.2,0.5,0.2,0.7,0.1L9.9,31.7z"/>
			<path class="st2" d="M10.5,32.5l-0.7-0.7L7,34.2c-0.2,0.2-0.2,0.5-0.1,0.7l0,0c0.2,0.2,0.5,0.2,0.7,0.1L10.5,32.5z"/>
			<path class="st2" d="M10.8,33.4l-0.7-0.7l-2.5,2.7c-0.2,0.2-0.2,0.5,0,0.7l0,0c0.2,0.2,0.5,0.2,0.7,0L10.8,33.4z"/>
			<path class="st2" d="M11.6,33.5L10.8,33l-2,3.2c-0.2,0.2-0.1,0.5,0.2,0.7l0,0c0.2,0.2,0.5,0.1,0.7-0.2L11.6,33.5z"/>
			<path class="st2" d="M12.2,33.1l-1-0.1L11,35.2c0,0.3,0.2,0.5,0.4,0.5l0,0c0.3,0,0.5-0.2,0.5-0.4L12.2,33.1z"/>
			<path class="st2" d="M12,33.7l-0.5,0.6c-0.1,0.1-0.3,0.1-0.4,0L8.6,32c-0.1-0.1-0.1-0.3,0-0.4L9.1,31c0.4-0.4,1-0.4,1.4-0.1
				l1.5,1.3C12.3,32.7,12.4,33.3,12,33.7z"/>
		</g>
		<path class="st2" d="M30.9,21.6c-0.3,1.1-1.4,1.9-2.5,1.6l0,0l0,0c-1.1-0.3-1.9-1.4-1.6-2.5l0.4-1.8l4.1,1L30.9,21.6z"/>
		<path class="st2" d="M29.4,20.3c-2.9-0.7-5.9-4.1-5.1-7.7l2.5-10.9l13,3l-2.5,10.9C36.5,19.3,33.9,21.4,29.4,20.3z"/>
		<rect x="23.7" y="6.7" transform="matrix(0.2249 -0.9744 0.9744 0.2249 11.654 31.1246)" class="st0" width="3.4" height="3.1"/>
		<ellipse class="st2" cx="25" cy="9.7" rx="1.9" ry="1.9"/>
		<path class="st0" d="M25,2.9L25,2.9l-0.6,2.5L24,7.5l3,0.7l0.2-0.9c0.2-0.6,0.7-1,1.4-0.9l9.1,2.1c1.2,0.3,2.4-0.5,2.7-1.7l0,0
			c0.5-2.4-1-4.8-3.4-5.3l-5.3-1.2c-1-0.2-2.1-0.3-3.1-0.2C25.5,0.4,25.2,2.1,25,2.9z"/>
		<path class="st3" d="M35.7,15.5"/>
		<ellipse transform="matrix(0.2245 -0.9745 0.9745 0.2245 13.2118 39.4143)" class="st0" cx="31.4" cy="11.4" rx="0.8" ry="0.4"/>
		<ellipse transform="matrix(0.2245 -0.9745 0.9745 0.2245 16.1007 45.5649)" class="st0" cx="36.7" cy="12.7" rx="0.8" ry="0.4"/>
	</g>
	<g>
		<path class="st0" d="M26.4,125.5L26,129l7,0.7c0,0-0.1-1.6-1.8-2.1c-1.7-0.5-3.2,0.4-3.2,0.4v-2.4L26.4,125.5z"/>
		<path class="st1" d="M25.6,125.6l3.6,0.1c0,0,0.7-5.4,1.1-11c0.5-7.8-7-14.8-7-14.8l-2.9,2.4c0,0,6.4,5.8,6.4,11.7
			C26.8,119.7,25.6,125.6,25.6,125.6z"/>
		<path class="st0" d="M15.5,120.5l-3.4,1.1l2.2,6.6c0,0,1.4-0.7,1.2-2.5c-0.2-1.7-1.6-2.8-1.6-2.8l2.2-0.9L15.5,120.5z"/>
		<path class="st0" d="M15.1,119.6l1.1,3.1c0,0,11.4-4.4,9.3-11.2c-1.8-5.9-4.1-12.4-4.1-12.4l-3.3,1.3c0,0,2.4,6.4,4.2,12.6
			C23.3,116.4,15.1,119.6,15.1,119.6z"/>
		<path class="st1" d="M23.4,109.4h-0.1c-3.6-0.6-6-4-5.4-7.5l0,0l13,2.1l0,0C30.3,107.6,27,110,23.4,109.4z"/>
		<path class="st1" d="M27.9,85.3L27.9,85.3c3.2,0.5,5.4,3.6,4.9,6.9c0,0-2.4,3.9-1.9,11.9c0,0.2-13-2.1-13-2.1l0.1-1
			c0.6-5.4,2.5-11,4.4-14C23.4,85.4,26.3,85,27.9,85.3z"/>
		<path class="st1" d="M29.7,88.9L29.7,88.9c-0.8,0.4-1.2,1.3-0.8,2.1c0,0-0.5,4,1.9,8.9c2.3,5,5,6.2,5,6.2c0.4,0.8,1.3,1.2,2.1,0.8
			l0,0c0.8-0.4,1.2-1.3,0.8-2.1c0,0-2.8-1.2-5.1-6.4c-2.3-5.2-1.8-8.8-1.8-8.8C31.4,88.8,30.5,88.5,29.7,88.9z"/>
		<g>
			<path class="st2" d="M36.9,106.4l-0.7,0.7l2.1,2.3c0.2,0.2,0.5,0.2,0.7,0l0,0c0.2-0.2,0.2-0.5,0-0.7L36.9,106.4z"/>
			<path class="st2" d="M37.7,105.8l-0.7,0.7l2.6,2.6c0.2,0.2,0.5,0.2,0.7,0l0,0c0.2-0.2,0.2-0.5,0-0.7L37.7,105.8z"/>
			<path class="st2" d="M38.5,105.4l-0.6,0.8l2.9,2.3c0.2,0.2,0.5,0.1,0.7-0.1l0,0c0.2-0.2,0.1-0.5-0.1-0.7L38.5,105.4z"/>
			<path class="st2" d="M38.6,104.6l-0.5,0.9l3.3,1.8c0.2,0.1,0.5,0,0.7-0.2l0,0c0.1-0.2,0-0.5-0.2-0.7L38.6,104.6z"/>
			<path class="st2" d="M38.2,104v1l2.2,0.1c0.3,0,0.5-0.2,0.5-0.5l0,0c0-0.3-0.2-0.5-0.5-0.5L38.2,104z"/>
			<path class="st2" d="M38.8,104.2l0.6,0.5c0.1,0.1,0.1,0.3,0,0.4l-2.2,2.7c-0.1,0.1-0.3,0.1-0.4,0l-0.6-0.5
				c-0.4-0.3-0.5-1-0.1-1.4l1.3-1.5C37.7,103.9,38.4,103.9,38.8,104.2z"/>
		</g>
		<path class="st1" d="M13.4,102.1L13.4,102.1c0.7,0.5,1.7,0.4,2.2-0.3c0,0,1-4.9,2.9-7.3c1.9-2.5,7-5.3,7-5.3
			c0.5-0.7,0.4-1.7-0.3-2.2l0,0c-0.7-0.5-1.7-0.4-2.2,0.3c0,0-5,2.7-6.9,5.3c-2,2.5-3,7.4-3,7.4C12.6,100.5,12.7,101.5,13.4,102.1z"
			/>
		<g>
			<path class="st2" d="M13,101.5l-0.8-0.5l-1.7,2.6c-0.1,0.2-0.1,0.5,0.1,0.7l0,0c0.2,0.1,0.5,0.1,0.7-0.1L13,101.5z"/>
			<path class="st2" d="M13.9,102.1l-0.8-0.5l-2,3.2c-0.1,0.2-0.1,0.5,0.2,0.7l0,0c0.2,0.1,0.5,0.1,0.7-0.2L13.9,102.1z"/>
			<path class="st2" d="M14.4,102.9l-0.9-0.4l-1.6,3.3c-0.1,0.2,0,0.5,0.2,0.7l0,0c0.2,0.1,0.5,0,0.7-0.2L14.4,102.9z"/>
			<path class="st2" d="M15.2,102.7l-1-0.3l-1,3.6c-0.1,0.3,0.1,0.5,0.3,0.6l0,0c0.3,0.1,0.5-0.1,0.6-0.3L15.2,102.7z"/>
			<path class="st2" d="M15.7,102.2l-1,0.2l0.4,2.2c0.1,0.3,0.3,0.4,0.6,0.4l0,0c0.3-0.1,0.4-0.3,0.4-0.6L15.7,102.2z"/>
			<path class="st2" d="M15.6,102.8l-0.3,0.7c-0.1,0.1-0.2,0.2-0.3,0.1l-3.1-1.5c-0.1-0.1-0.2-0.2-0.1-0.3l0.3-0.7
				c0.2-0.5,0.8-0.7,1.3-0.5l1.8,0.9C15.7,101.7,15.9,102.3,15.6,102.8z"/>
		</g>
		<path class="st2" d="M30.9,86.6c-0.3,1.1-1.4,1.9-2.5,1.6l0,0l0,0c-1.1-0.3-1.9-1.4-1.6-2.5l0.4-1.8l4.1,1L30.9,86.6z"/>
		<path class="st2" d="M29.4,85.3c-2.9-0.7-5.9-4.1-5.1-7.7l2.5-10.9l13,3l-2.5,10.9C36.5,84.3,33.9,86.4,29.4,85.3z"/>
		
			<rect x="23.7" y="71.7" transform="matrix(0.2249 -0.9744 0.9744 0.2249 -51.6794 81.5072)" class="st0" width="3.4" height="3.1"/>
		<ellipse class="st2" cx="25" cy="74.7" rx="1.9" ry="1.9"/>
		<path class="st0" d="M25,67.9L25,67.9l-0.6,2.5L24,72.5l3.1,0.7l0.2-0.9c0.2-0.6,0.7-1,1.4-0.9l9.1,2.1c1.2,0.3,2.4-0.5,2.7-1.7
			l0,0c0.6-2.4-0.9-4.8-3.3-5.3l-5.3-1.2c-1-0.2-2.1-0.3-3.1-0.2C25.5,65.4,25.2,67.1,25,67.9z"/>
		<path class="st3" d="M35.7,80.5"/>
		<ellipse transform="matrix(0.2245 -0.9745 0.9745 0.2245 -50.1314 89.8255)" class="st0" cx="31.4" cy="76.4" rx="0.8" ry="0.4"/>
		<ellipse transform="matrix(0.2245 -0.9745 0.9745 0.2245 -47.2426 95.9761)" class="st0" cx="36.7" cy="77.7" rx="0.8" ry="0.4"/>
	</g>
</g>
<g id="jump">
	<path class="st0" d="M63.4,55.9l-3.3,1.3l2.5,6.6c0,0,1.4-0.8,1.1-2.5S62,58.6,62,58.6l2.2-1L63.4,55.9z"/>
	<path class="st0" d="M62.9,55l1.2,3.1c0,0,11.2-4.9,8.8-11.6c-2-5.8-4.6-12.2-4.6-12.2l-3.1,1.5c0,0,2.6,6.3,4.7,12.4
		C70.9,51.5,62.9,55,62.9,55z"/>
	<path class="st0" d="M79.9,58.3l-1.8,3.1l6.1,3.5c0,0,0.6-1.5-0.7-2.6c-1.3-1.1-3-1-3-1l1-2.1L79.9,58.3z"/>
	<path class="st1" d="M78.9,58l2.9,1.6c0,0,5.6-10.9-0.5-14.6C76.1,41.8,70,38.5,70,38.5l-1.5,3.1c0,0,6,3.2,11.5,6.6
		C82.9,50.1,78.9,58,78.9,58z"/>
	<path class="st1" d="M68.9,48.2L68.9,48.2c-3.7-0.6-6.1-4-5.5-7.5l0,0l13,2.1l0,0C75.8,46.4,72.5,48.8,68.9,48.2z"/>
	<path class="st1" d="M73.4,24.1L73.4,24.1c3.2,0.5,5.4,3.6,4.9,6.9c0,0-2.4,3.9-1.9,11.9c0,0.2-13-2.1-13-2.1l0.1-1
		c0.6-5.4,2.5-11,4.4-14C68.9,24.2,71.8,23.8,73.4,24.1z"/>
	<path class="st1" d="M76.3,30.7L76.3,30.7c0.5,0.6,1.5,0.8,2.2,0.3c0,0,3.9-0.5,8.2-3.9c4.3-3.4,4.9-6.4,4.9-6.4
		c0.6-0.5,0.8-1.5,0.3-2.2l0,0c-0.5-0.6-1.5-0.8-2.2-0.3c0,0-0.5,3-5,6.4s-8.1,3.9-8.1,3.9C75.8,29.1,75.7,30.1,76.3,30.7z"/>
	<g>
		<path class="st2" d="M91.6,19.6l0.9,0.5l1.7-2.6c0.2-0.2,0.1-0.5-0.2-0.7l0,0c-0.2-0.2-0.5-0.1-0.7,0.2L91.6,19.6z"/>
		<path class="st2" d="M90.8,19l0.9,0.5l1.9-3.1c0.2-0.2,0.1-0.5-0.2-0.7l0,0c-0.2-0.2-0.5-0.1-0.7,0.2L90.8,19z"/>
		<path class="st2" d="M90.2,18.3l0.9,0.4l1.6-3.4c0.1-0.3,0-0.5-0.2-0.6l0,0c-0.3-0.1-0.5,0-0.6,0.2L90.2,18.3z"/>
		<path class="st2" d="M89.4,18.4l1,0.3l0.9-3.6c0.1-0.3-0.1-0.6-0.3-0.6l0,0c-0.3-0.1-0.6,0.1-0.6,0.3L89.4,18.4z"/>
		<path class="st2" d="M89,18.9l0.9-0.2l-0.4-2.2c-0.1-0.3-0.3-0.4-0.6-0.4l0,0c-0.3,0.1-0.4,0.3-0.4,0.6L89,18.9z"/>
		<path class="st2" d="M89,18.3l0.4-0.7c0.1-0.2,0.2-0.2,0.4-0.1l3.1,1.5c0.2,0.1,0.2,0.2,0.1,0.4L92.5,20c-0.2,0.5-0.8,0.7-1.3,0.5
			l-1.8-0.9C88.9,19.4,88.7,18.8,89,18.3z"/>
	</g>
	<path class="st1" d="M57,17.6L57,17.6c-0.7,0.6-0.8,1.6-0.2,2.2c0,0,4.6,2.1,6.6,4.4s3.7,7.9,3.7,7.9c0.6,0.7,1.6,0.8,2.2,0.2l0,0
		c0.7-0.6,0.8-1.6,0.2-2.2c0,0-1.6-5.5-3.6-7.9c-2-2.4-6.6-4.5-6.6-4.5C58.8,17.2,57.8,17,57,17.6z"/>
	<g>
		<path class="st2" d="M57.7,17.3l0.8-0.7l-2.1-2.2c-0.2-0.2-0.5-0.2-0.7,0l0,0c-0.2,0.2-0.2,0.5,0,0.7L57.7,17.3z"/>
		<path class="st2" d="M56.9,18l0.6-0.8l-2.6-2.6c-0.2-0.2-0.5-0.2-0.7,0l0,0c-0.2,0.2-0.2,0.5,0,0.7L56.9,18z"/>
		<path class="st2" d="M56.1,18.4l0.6-0.8l-2.9-2.3c-0.2-0.2-0.5-0.2-0.7,0.1l0,0c-0.2,0.2-0.2,0.5,0.1,0.7L56.1,18.4z"/>
		<path class="st2" d="M56,19.2l0.4-0.8l-3.3-1.7c-0.2-0.2-0.5-0.1-0.7,0.3l0,0c-0.2,0.2-0.1,0.5,0.3,0.7L56,19.2z"/>
		<path class="st2" d="M56.5,19.7v-1h-2.2c-0.3,0-0.5,0.2-0.5,0.4l0,0c0,0.3,0.2,0.5,0.4,0.5L56.5,19.7z"/>
		<path class="st2" d="M55.9,19.6l-0.6-0.5c-0.1-0.1-0.1-0.3,0-0.4l2.1-2.7c0.1-0.1,0.3-0.1,0.4,0l0.6,0.5c0.4,0.4,0.5,1,0.2,1.4
			l-1.2,1.6C56.9,19.8,56.3,20,55.9,19.6z"/>
	</g>
	<path class="st2" d="M76.4,25.4c-0.3,1.1-1.4,1.9-2.5,1.6l0,0l0,0c-1.1-0.3-1.9-1.4-1.6-2.5l0.4-1.8l4.1,1L76.4,25.4z"/>
	<path class="st2" d="M79.4,24.1c-2.6,1.5-7.1,1.2-9-1.9l-5.9-9.5l11.4-7l5.9,9.5C83.7,18.4,83.3,21.8,79.4,24.1z"/>
	<rect x="66.5" y="16.7" transform="matrix(0.8512 -0.5249 0.5249 0.8512 0.4492 38.4474)" class="st0" width="3.1" height="3.4"/>
	<ellipse class="st2" cx="68.8" cy="19.7" rx="1.9" ry="1.9"/>
	<path class="st0" d="M64,14.9L64,14.9l1.3,2.2l1.2,1.7l2.6-1.6l-0.5-0.8c-0.3-0.6-0.2-1.2,0.4-1.6l7.9-4.9c1.1-0.6,1.4-2,0.7-3.1
		l0,0c-1.3-2.1-4.1-2.7-6.1-1.4l-4.6,2.9c-0.9,0.6-1.7,1.3-2.3,2C62.6,12.7,63.6,14.1,64,14.9z"/>
	<path class="st3" d="M81.2,19.3"/>
	<ellipse transform="matrix(0.851 -0.5252 0.5252 0.851 2.4512 41.5529)" class="st0" cx="74.5" cy="16.5" rx="0.4" ry="0.8"/>
	<ellipse transform="matrix(0.851 -0.5252 0.5252 0.851 4.6372 43.6071)" class="st0" cx="79.2" cy="13.6" rx="0.4" ry="0.8"/>
</g>
<g id="game-over">
	<path class="st0" d="M88.1,126.6l1.3,3.3l6.5-2.6c0,0-0.8-1.4-2.5-1c-1.7,0.4-2.7,1.8-2.7,1.8l-1.1-2.1L88.1,126.6z"/>
	<path class="st1" d="M87.5,127.1l3.2-1.6c0,0-1.9-5.1-4.1-10.2c-3.2-7.1-13.1-9.8-13.1-9.8l-1.5,3.4c0,0,8.4,2.1,11.1,7.4
		C85.8,121.3,87.5,127.1,87.5,127.1z"/>
	<path class="st0" d="M56.4,115.3l-3.2-1.6l-3.1,6.3c0,0,1.5,0.5,2.6-0.9c1-1.4,0.8-3.1,0.8-3.1l2.2,0.9L56.4,115.3z"/>
	<path class="st0" d="M56.7,114.3l-1.4,3c0,0,11.2,4.9,14.5-1.4c2.9-5.4,5.8-11.7,5.8-11.7l-3.2-1.3c0,0-2.8,6.2-5.9,11.9
		C64.8,117.8,56.7,114.3,56.7,114.3z"/>
	<path class="st1" d="M73.5,109.3L73.5,109.3c-3.7-0.6-6.1-4-5.5-7.5l0,0l13,2.1l0,0C80.4,107.5,77.1,109.9,73.5,109.3z"/>
	<path class="st1" d="M78,85.2L78,85.2c3.2,0.5,5.4,3.6,4.9,6.9c0,0-2.4,3.9-1.9,11.9c0,0.2-13-2.1-13-2.1l0.1-1
		c0.6-5.4,2.5-11,4.4-14C73.5,85.3,76.4,84.9,78,85.2z"/>
	<path class="st1" d="M79.3,87.8L79.3,87.8c-0.4,0.7-0.2,1.7,0.5,2.2c0,0,1.9,3.5,6.6,6.3c4.7,2.8,7.7,2.3,7.7,2.3
		c0.7,0.4,1.7,0.2,2.2-0.5l0,0c0.4-0.7,0.2-1.7-0.5-2.2c0,0-3,0.6-7.8-2.4c-4.8-3-6.5-6.2-6.5-6.2C80.7,86.8,79.7,87,79.3,87.8z"/>
	<g>
		<path class="st2" d="M95.2,98.2l-0.2,1l3,0.7c0.3,0.1,0.5-0.1,0.6-0.4l0,0c0.1-0.3-0.1-0.5-0.4-0.6L95.2,98.2z"/>
		<path class="st2" d="M95.4,97.2l-0.2,1l3.6,0.7c0.3,0.1,0.5-0.1,0.6-0.4l0,0c0.1-0.3-0.1-0.5-0.4-0.6L95.4,97.2z"/>
		<path class="st2" d="M95.9,96.4l-0.1,1l3.7,0.3c0.3,0,0.5-0.2,0.5-0.4l0,0c0-0.3-0.2-0.5-0.4-0.5L95.9,96.4z"/>
		<path class="st2" d="M95.5,95.7l0.1,1l3.7-0.4c0.3,0,0.5-0.3,0.4-0.5l0,0c0-0.3-0.3-0.5-0.5-0.4L95.5,95.7z"/>
		<path class="st2" d="M94.9,95.5l0.5,0.8l1.9-1.2c0.2-0.2,0.3-0.4,0.2-0.7l0,0c-0.2-0.2-0.4-0.3-0.7-0.2L94.9,95.5z"/>
		<path class="st2" d="M95.5,95.3l0.8,0.1c0.2,0,0.3,0.1,0.2,0.3l-0.3,3.4c0,0.2-0.1,0.3-0.3,0.2l-0.8-0.1c-0.5,0-0.9-0.5-0.9-1.1
			l0.2-2C94.4,95.6,94.9,95.2,95.5,95.3z"/>
	</g>
	<path class="st1" d="M60.2,97.3L60.2,97.3c0.5,0.7,1.5,0.9,2.2,0.4c0,0,2.4-4.4,4.9-6.2c2.5-1.8,8.2-3.1,8.2-3.1
		c0.7-0.5,0.9-1.5,0.4-2.2l0,0c-0.5-0.7-1.5-0.9-2.2-0.4c0,0-5.6,1.2-8.2,3c-2.6,1.8-5,6.2-5,6.2C59.9,95.5,59.7,96.5,60.2,97.3z"/>
	<g>
		<path class="st2" d="M60,96.6l-0.6-0.8L57,97.7c-0.2,0.2-0.2,0.5-0.1,0.7l0,0c0.2,0.2,0.5,0.2,0.7,0.1L60,96.6z"/>
		<path class="st2" d="M60.6,97.4l-0.7-0.7l-2.8,2.4c-0.2,0.2-0.2,0.5-0.1,0.7l0,0c0.2,0.2,0.5,0.2,0.7,0.1L60.6,97.4z"/>
		<path class="st2" d="M60.9,98.3l-0.7-0.7l-2.5,2.7c-0.2,0.2-0.2,0.5,0,0.7l0,0c0.2,0.2,0.5,0.2,0.7,0L60.9,98.3z"/>
		<path class="st2" d="M61.7,98.4l-0.8-0.5l-2,3.2c-0.2,0.2-0.1,0.5,0.2,0.7l0,0c0.2,0.2,0.5,0.1,0.7-0.2L61.7,98.4z"/>
		<path class="st2" d="M62.3,98l-1-0.1l-0.2,2.2c0,0.3,0.2,0.5,0.4,0.5l0,0c0.3,0,0.5-0.2,0.5-0.4L62.3,98z"/>
		<path class="st2" d="M62.1,98.6l-0.5,0.6c-0.1,0.1-0.3,0.1-0.4,0l-2.5-2.3c-0.1-0.1-0.1-0.3,0-0.4l0.5-0.6c0.4-0.4,1-0.4,1.4-0.1
			l1.5,1.3C62.4,97.6,62.5,98.2,62.1,98.6z"/>
	</g>
	<path class="st2" d="M81,86.5c-0.3,1.1-1.4,1.9-2.5,1.6l0,0l0,0c-1.1-0.3-1.9-1.4-1.6-2.5l0.4-1.8l4.1,1L81,86.5z"/>
	<path class="st2" d="M79.5,85.2c-2.9-0.7-5.9-4.1-5.1-7.7l2.5-10.9l13,3l-2.5,10.9C86.6,84.2,84,86.3,79.5,85.2z"/>
	
		<rect x="73.8" y="71.6" transform="matrix(0.2249 -0.9744 0.9744 0.2249 -12.7367 130.2199)" class="st0" width="3.4" height="3.1"/>
	<ellipse class="st2" cx="75.1" cy="74.6" rx="1.9" ry="1.9"/>
	<path class="st0" d="M75.1,67.8L75.1,67.8l-0.6,2.5l-0.4,2.1l3,0.7l0.2-0.9c0.2-0.6,0.7-1,1.4-0.9l9.1,2.1c1.2,0.3,2.4-0.5,2.7-1.7
		l0,0c0.5-2.4-1-4.8-3.4-5.3l-5.3-1.2c-1-0.2-2.1-0.3-3.1-0.2C75.6,65.3,75.3,67,75.1,67.8z"/>
	<path class="st3" d="M85.8,80.4"/>
	<ellipse transform="matrix(0.2245 -0.9745 0.9745 0.2245 -8.2759 144.691)" class="st0" cx="86.8" cy="77.5" rx="1.4" ry="0.7"/>
	<ellipse transform="matrix(0.2245 -0.9745 0.9745 0.2245 -11.1648 138.5404)" class="st0" cx="81.5" cy="76.3" rx="1.4" ry="0.7"/>
</g>
</svg>
