<?xml version="1.0" encoding="utf-8"?>
<!-- Generator: Adobe Illustrator 26.5.0, SVG Export Plug-In . SVG Version: 6.00 Build 0)  -->
<svg version="1.1" id="Ebene_1" xmlns="http://www.w3.org/2000/svg" xmlns:xlink="http://www.w3.org/1999/xlink" x="0px" y="0px"
	 viewBox="0 0 50 65" style="enable-background:new 0 0 50 65;" xml:space="preserve">
<style type="text/css">
	.st0{fill:#333333;}
	.st1{fill:#4D4D4D;}
	.st2{fill:#F8C09D;}
	.st3{fill:none;stroke:#EF937E;stroke-width:4.5315;stroke-linecap:round;stroke-miterlimit:10;}
</style>
<g>
	<path class="st0" d="M17.9,52.1l-3.3,1.3l2.5,6.6c0,0,1.4-0.8,1.1-2.5c-0.3-1.7-1.7-2.7-1.7-2.7l2.2-1L17.9,52.1z"/>
	<path class="st0" d="M17.4,51.2l1.2,3.1c0,0,11.2-4.9,8.8-11.6c-2-5.8-4.6-12.2-4.6-12.2L19.7,32c0,0,2.6,6.3,4.7,12.4
		C25.4,47.7,17.4,51.2,17.4,51.2z"/>
</g>
<g>
	<path class="st0" d="M34.4,54.5l-1.8,3.1l6.1,3.5c0,0,0.6-1.5-0.7-2.6c-1.3-1.1-3-1-3-1l1-2.1L34.4,54.5z"/>
	<path class="st1" d="M33.4,54.2l2.9,1.6c0,0,5.6-10.9-0.5-14.6c-5.2-3.2-11.3-6.5-11.3-6.5L23,37.8c0,0,6,3.2,11.5,6.6
		C37.4,46.3,33.4,54.2,33.4,54.2z"/>
</g>
<path class="st1" d="M23.4,44.4h-0.1c-3.6-0.6-6-4-5.4-7.5l0,0l13,2.1l0,0C30.3,42.6,27,45,23.4,44.4z"/>
<path class="st1" d="M27.9,20.3L27.9,20.3c3.2,0.5,5.4,3.6,4.9,6.9c0,0-2.4,3.9-1.9,11.9c0,0.2-13-2.1-13-2.1l0.1-1
	c0.6-5.4,2.5-11,4.4-14C23.4,20.4,26.3,20,27.9,20.3z"/>
<g>
	<path class="st1" d="M30.8,26.9L30.8,26.9c0.5,0.6,1.5,0.8,2.2,0.3c0,0,3.9-0.5,8.2-3.9s4.9-6.4,4.9-6.4c0.6-0.5,0.8-1.5,0.3-2.2
		l0,0c-0.5-0.6-1.5-0.8-2.2-0.3c0,0-0.5,3-5,6.4s-8.1,3.9-8.1,3.9C30.3,25.3,30.2,26.3,30.8,26.9z"/>
	<g>
		<path class="st2" d="M46.1,15.8l0.9,0.5l1.7-2.6c0.2-0.2,0.1-0.5-0.2-0.7l0,0c-0.2-0.2-0.5-0.1-0.7,0.2L46.1,15.8z"/>
		<path class="st2" d="M45.3,15.2l0.9,0.5l1.9-3.1c0.2-0.2,0.1-0.5-0.2-0.7l0,0c-0.2-0.2-0.5-0.1-0.7,0.2L45.3,15.2z"/>
		<path class="st2" d="M44.7,14.5l0.9,0.4l1.6-3.4c0.1-0.3,0-0.5-0.2-0.6l0,0c-0.3-0.1-0.5,0-0.6,0.2L44.7,14.5z"/>
		<path class="st2" d="M43.9,14.6l1,0.3l0.9-3.6c0.1-0.3-0.1-0.6-0.3-0.6l0,0c-0.3-0.1-0.6,0.1-0.6,0.3L43.9,14.6z"/>
		<path class="st2" d="M43.5,15.1l0.9-0.2L44,12.7c-0.1-0.3-0.3-0.4-0.6-0.4l0,0c-0.3,0.1-0.4,0.3-0.4,0.6L43.5,15.1z"/>
		<path class="st2" d="M43.5,14.5l0.4-0.7c0.1-0.2,0.2-0.2,0.4-0.1l3.1,1.5c0.2,0.1,0.2,0.2,0.1,0.4L47,16.2
			c-0.2,0.5-0.8,0.7-1.3,0.5l-1.8-0.9C43.4,15.6,43.2,15,43.5,14.5z"/>
	</g>
</g>
<g>
	<path class="st1" d="M11.5,13.8L11.5,13.8c-0.7,0.6-0.8,1.6-0.2,2.2c0,0,4.6,2.1,6.6,4.4s3.7,7.9,3.7,7.9c0.6,0.7,1.6,0.8,2.2,0.2
		l0,0c0.7-0.6,0.8-1.6,0.2-2.2c0,0-1.6-5.5-3.6-7.9s-6.6-4.5-6.6-4.5C13.3,13.4,12.3,13.2,11.5,13.8z"/>
	<g>
		<path class="st2" d="M12.2,13.5l0.8-0.7l-2.1-2.2c-0.2-0.2-0.5-0.2-0.7,0l0,0c-0.2,0.2-0.2,0.5,0,0.7L12.2,13.5z"/>
		<path class="st2" d="M11.4,14.2l0.6-0.8l-2.6-2.6c-0.2-0.2-0.5-0.2-0.7,0l0,0c-0.2,0.2-0.2,0.5,0,0.7L11.4,14.2z"/>
		<path class="st2" d="M10.6,14.6l0.6-0.8l-2.9-2.3c-0.2-0.2-0.5-0.2-0.7,0.1l0,0c-0.2,0.2-0.2,0.5,0.1,0.7L10.6,14.6z"/>
		<path class="st2" d="M10.5,15.4l0.4-0.8l-3.3-1.7c-0.2-0.2-0.5-0.1-0.7,0.3l0,0c-0.2,0.2-0.1,0.5,0.3,0.7L10.5,15.4z"/>
		<path class="st2" d="M11,15.9l0-1l-2.2,0c-0.3,0-0.5,0.2-0.5,0.4l0,0c0,0.3,0.2,0.5,0.4,0.5L11,15.9z"/>
		<path class="st2" d="M10.4,15.8l-0.6-0.5c-0.1-0.1-0.1-0.3,0-0.4l2.1-2.7c0.1-0.1,0.3-0.1,0.4,0l0.6,0.5c0.4,0.4,0.5,1,0.2,1.4
			l-1.2,1.6C11.4,16,10.8,16.2,10.4,15.8z"/>
	</g>
</g>
<path class="st2" d="M30.9,21.6c-0.3,1.1-1.4,1.9-2.5,1.6l0,0l0,0c-1.1-0.3-1.9-1.4-1.6-2.5l0.4-1.8l4.1,1L30.9,21.6z"/>
<path class="st2" d="M33.9,20.3c-2.6,1.5-7.1,1.2-9-1.9L19,8.9l11.4-7l5.9,9.5C38.2,14.6,37.8,18,33.9,20.3z"/>
<rect x="21" y="12.9" transform="matrix(0.8512 -0.5249 0.5249 0.8512 -4.2946 14.0014)" class="st0" width="3.1" height="3.4"/>
<ellipse class="st2" cx="23.3" cy="15.9" rx="1.9" ry="1.9"/>
<path class="st0" d="M18.5,11.1L18.5,11.1l1.3,2.2L21,15l2.6-1.6l-0.5-0.8c-0.3-0.6-0.2-1.2,0.4-1.6l7.9-4.9c1.1-0.6,1.4-2,0.7-3.1
	l0,0c-1.3-2.1-4.1-2.7-6.1-1.4l-4.6,2.9c-0.9,0.6-1.7,1.3-2.3,2C17.1,8.9,18.1,10.3,18.5,11.1z"/>
<path class="st3" d="M35.7,15.5"/>
<ellipse transform="matrix(0.851 -0.5252 0.5252 0.851 -2.306 17.1258)" class="st0" cx="29" cy="12.6" rx="0.4" ry="0.8"/>
<ellipse transform="matrix(0.851 -0.5252 0.5252 0.851 -0.1222 19.152)" class="st0" cx="33.7" cy="9.8" rx="0.4" ry="0.8"/>
</svg>
