<svg version="1.1" id="Ebene_1" xmlns="http://www.w3.org/2000/svg" xmlns:xlink="http://www.w3.org/1999/xlink" x="0px" y="0px"
	 viewBox="0 0 50 130" style="enable-background:new 0 0 50 130;" xml:space="preserve">
<style type="text/css">
	.st0{fill:#333333;}
	.st1{fill:#4D4D4D;}
	.st2{fill:#F8C09D;}
	.st3{fill:none;stroke:#EF937E;stroke-width:4.5315;stroke-linecap:round;stroke-miterlimit:10;}
</style>
<g>
	<path class="st0" d="M38,61.7l1.3,3.3l6.5-2.6c0,0-0.8-1.4-2.5-1c-1.7,0.4-2.7,1.8-2.7,1.8l-1.1-2.1L38,61.7z"/>
	<path class="st1" d="M37.4,62.2l3.2-1.6c0,0-1.9-5.1-4.1-10.2c-3.2-7.1-13.1-9.8-13.1-9.8L21.9,44c0,0,8.4,2.1,11.1,7.4
		C35.7,56.4,37.4,62.2,37.4,62.2z"/>
	<path class="st0" d="M6.3,50.4l-3.2-1.6L0,55.1c0,0,1.5,0.5,2.6-0.9c1-1.4,0.8-3.1,0.8-3.1l2.2,0.9L6.3,50.4z"/>
	<path class="st0" d="M6.6,49.4l-1.4,3c0,0,11.2,4.9,14.5-1.4c2.9-5.4,5.8-11.7,5.8-11.7L22.3,38c0,0-2.8,6.2-5.9,11.9
		C14.7,52.9,6.6,49.4,6.6,49.4z"/>
	<path class="st1" d="M23.4,44.4l-0.1,0c-3.6-0.6-6-4-5.4-7.5v0l13,2.1v0C30.3,42.6,27,45,23.4,44.4z"/>
	<path class="st1" d="M27.9,20.3L27.9,20.3c3.2,0.5,5.4,3.6,4.9,6.9c0,0-2.4,3.9-1.9,11.9c0,0.2-13-2.1-13-2.1l0.1-1
		c0.6-5.4,2.5-11,4.4-14C23.4,20.4,26.3,20,27.9,20.3z"/>
	<path class="st1" d="M29.2,22.9L29.2,22.9c-0.4,0.7-0.2,1.7,0.5,2.2c0,0,1.9,3.5,6.6,6.3c4.7,2.8,7.7,2.3,7.7,2.3
		c0.7,0.4,1.7,0.2,2.2-0.5l0,0c0.4-0.7,0.2-1.7-0.5-2.2c0,0-3,0.6-7.8-2.4s-6.5-6.2-6.5-6.2C30.6,21.9,29.6,22.1,29.2,22.9z"/>
	<g>
		<path class="st2" d="M45.1,33.3l-0.2,1l3,0.7c0.3,0.1,0.5-0.1,0.6-0.4l0,0c0.1-0.3-0.1-0.5-0.4-0.6L45.1,33.3z"/>
		<path class="st2" d="M45.3,32.3l-0.2,1l3.6,0.7c0.3,0.1,0.5-0.1,0.6-0.4l0,0c0.1-0.3-0.1-0.5-0.4-0.6L45.3,32.3z"/>
		<path class="st2" d="M45.8,31.5l-0.1,1l3.7,0.3c0.3,0,0.5-0.2,0.5-0.4l0,0c0-0.3-0.2-0.5-0.4-0.5L45.8,31.5z"/>
		<path class="st2" d="M45.4,30.8l0.1,1l3.7-0.4c0.3,0,0.5-0.3,0.4-0.5l0,0c0-0.3-0.3-0.5-0.5-0.4L45.4,30.8z"/>
		<path class="st2" d="M44.8,30.6l0.5,0.8l1.9-1.2c0.2-0.2,0.3-0.4,0.2-0.7l0,0c-0.2-0.2-0.4-0.3-0.7-0.2L44.8,30.6z"/>
		<path class="st2" d="M45.4,30.4l0.8,0.1c0.2,0,0.3,0.1,0.2,0.3l-0.3,3.4c0,0.2-0.1,0.3-0.3,0.2L45,34.3c-0.5,0-0.9-0.5-0.9-1.1
			l0.2-2C44.3,30.7,44.8,30.3,45.4,30.4z"/>
	</g>
	<path class="st1" d="M10.1,32.4L10.1,32.4c0.5,0.7,1.5,0.9,2.2,0.4c0,0,2.4-4.4,4.9-6.2s8.2-3.1,8.2-3.1c0.7-0.5,0.9-1.5,0.4-2.2
		l0,0c-0.5-0.7-1.5-0.9-2.2-0.4c0,0-5.6,1.2-8.2,3s-5,6.2-5,6.2C9.8,30.6,9.6,31.6,10.1,32.4z"/>
	<g>
		<path class="st2" d="M9.9,31.7l-0.6-0.8l-2.4,1.9c-0.2,0.2-0.2,0.5-0.1,0.7l0,0c0.2,0.2,0.5,0.2,0.7,0.1L9.9,31.7z"/>
		<path class="st2" d="M10.5,32.5l-0.7-0.7L7,34.2c-0.2,0.2-0.2,0.5-0.1,0.7l0,0c0.2,0.2,0.5,0.2,0.7,0.1L10.5,32.5z"/>
		<path class="st2" d="M10.8,33.4l-0.7-0.7l-2.5,2.7c-0.2,0.2-0.2,0.5,0,0.7l0,0c0.2,0.2,0.5,0.2,0.7,0L10.8,33.4z"/>
		<path class="st2" d="M11.6,33.5L10.8,33l-2,3.2c-0.2,0.2-0.1,0.5,0.2,0.7l0,0c0.2,0.2,0.5,0.1,0.7-0.2L11.6,33.5z"/>
		<path class="st2" d="M12.2,33.1l-1-0.1L11,35.2c0,0.3,0.2,0.5,0.4,0.5l0,0c0.3,0,0.5-0.2,0.5-0.4L12.2,33.1z"/>
		<path class="st2" d="M12,33.7l-0.5,0.6c-0.1,0.1-0.3,0.1-0.4,0l-2.5-2.3c-0.1-0.1-0.1-0.3,0-0.4L9.1,31c0.4-0.4,1-0.4,1.4-0.1
			l1.5,1.3C12.3,32.7,12.4,33.3,12,33.7z"/>
	</g>
	<path class="st2" d="M30.9,21.6c-0.3,1.1-1.4,1.9-2.5,1.6l0,0l0,0c-1.1-0.3-1.9-1.4-1.6-2.5l0.4-1.8l4.1,1L30.9,21.6z"/>
	<path class="st2" d="M29.4,20.3c-2.9-0.7-5.9-4.1-5.1-7.7l2.5-10.9l13,3l-2.5,10.9C36.5,19.3,33.9,21.4,29.4,20.3z"/>
	<rect x="23.7" y="6.7" transform="matrix(0.2249 -0.9744 0.9744 0.2249 11.6391 31.1315)" class="st0" width="3.4" height="3.1"/>
	<ellipse class="st2" cx="25" cy="9.7" rx="1.9" ry="1.9"/>
	<path class="st0" d="M25,2.9L25,2.9l-0.6,2.5L24,7.5L27,8.2l0.2-0.9c0.2-0.6,0.7-1,1.4-0.9l9.1,2.1c1.2,0.3,2.4-0.5,2.7-1.7l0,0
		C40.9,4.4,39.4,2,37,1.5l-5.3-1.2c-1-0.2-2.1-0.3-3.1-0.2C25.5,0.4,25.2,2.1,25,2.9z"/>
	<path class="st3" d="M35.7,15.5"/>
	<ellipse transform="matrix(0.2245 -0.9745 0.9745 0.2245 13.2107 39.4464)" class="st0" cx="31.4" cy="11.4" rx="0.8" ry="0.4"/>
	<ellipse transform="matrix(0.2245 -0.9745 0.9745 0.2245 16.1602 45.6021)" class="st0" cx="36.7" cy="12.6" rx="0.8" ry="0.4"/>
</g>
<g>
	<path class="st0" d="M26.4,125.5L26,129l7,0.7c0,0-0.1-1.6-1.8-2.1c-1.7-0.5-3.2,0.4-3.2,0.4l0-2.4L26.4,125.5z"/>
	<path class="st1" d="M25.6,125.6l3.6,0.1c0,0,0.7-5.4,1.1-11c0.5-7.8-7-14.8-7-14.8l-2.9,2.4c0,0,6.4,5.8,6.4,11.7
		C26.8,119.7,25.6,125.6,25.6,125.6z"/>
	<path class="st0" d="M15.5,120.5l-3.4,1.1l2.2,6.6c0,0,1.4-0.7,1.2-2.5c-0.2-1.7-1.6-2.8-1.6-2.8l2.2-0.9L15.5,120.5z"/>
	<path class="st0" d="M15.1,119.6l1.1,3.1c0,0,11.4-4.4,9.3-11.2c-1.8-5.9-4.1-12.4-4.1-12.4l-3.3,1.3c0,0,2.4,6.4,4.2,12.6
		C23.3,116.4,15.1,119.6,15.1,119.6z"/>
	<path class="st1" d="M23.4,109.4l-0.1,0c-3.6-0.6-6-4-5.4-7.5v0l13,2.1v0C30.3,107.6,27,110,23.4,109.4z"/>
	<path class="st1" d="M27.9,85.3L27.9,85.3c3.2,0.5,5.4,3.6,4.9,6.9c0,0-2.4,3.9-1.9,11.9c0,0.2-13-2.1-13-2.1l0.1-1
		c0.6-5.4,2.5-11,4.4-14C23.4,85.4,26.3,85,27.9,85.3z"/>
	<path class="st1" d="M29.7,88.9L29.7,88.9c-0.8,0.4-1.2,1.3-0.8,2.1c0,0-0.5,4,1.9,8.9c2.3,5,5,6.2,5,6.2c0.4,0.8,1.3,1.2,2.1,0.8
		l0,0c0.8-0.4,1.2-1.3,0.8-2.1c0,0-2.8-1.2-5.1-6.4c-2.3-5.2-1.8-8.8-1.8-8.8C31.4,88.8,30.5,88.5,29.7,88.9z"/>
	<g>
		<path class="st2" d="M36.9,106.4l-0.7,0.7l2.1,2.3c0.2,0.2,0.5,0.2,0.7,0l0,0c0.2-0.2,0.2-0.5,0-0.7L36.9,106.4z"/>
		<path class="st2" d="M37.7,105.8l-0.7,0.7l2.6,2.6c0.2,0.2,0.5,0.2,0.7,0l0,0c0.2-0.2,0.2-0.5,0-0.7L37.7,105.8z"/>
		<path class="st2" d="M38.5,105.4l-0.6,0.8l2.9,2.3c0.2,0.2,0.5,0.1,0.7-0.1l0,0c0.2-0.2,0.1-0.5-0.1-0.7L38.5,105.4z"/>
		<path class="st2" d="M38.6,104.6l-0.5,0.9l3.3,1.8c0.2,0.1,0.5,0,0.7-0.2l0,0c0.1-0.2,0-0.5-0.2-0.7L38.6,104.6z"/>
		<path class="st2" d="M38.2,104l0,1l2.2,0.1c0.3,0,0.5-0.2,0.5-0.5l0,0c0-0.3-0.2-0.5-0.5-0.5L38.2,104z"/>
		<path class="st2" d="M38.8,104.2l0.6,0.5c0.1,0.1,0.1,0.3,0,0.4l-2.2,2.7c-0.1,0.1-0.3,0.1-0.4,0l-0.6-0.5c-0.4-0.3-0.5-1-0.1-1.4
			l1.3-1.5C37.7,103.9,38.4,103.9,38.8,104.2z"/>
	</g>
	<path class="st1" d="M13.4,102.1L13.4,102.1c0.7,0.5,1.7,0.4,2.2-0.3c0,0,1-4.9,2.9-7.3c1.9-2.5,7-5.3,7-5.3
		c0.5-0.7,0.4-1.7-0.3-2.2l0,0c-0.7-0.5-1.7-0.4-2.2,0.3c0,0-5,2.7-6.9,5.3c-2,2.5-3,7.4-3,7.4C12.6,100.5,12.7,101.5,13.4,102.1z"
		/>
	<g>
		<path class="st2" d="M13,101.5l-0.8-0.5l-1.7,2.6c-0.1,0.2-0.1,0.5,0.1,0.7l0,0c0.2,0.1,0.5,0.1,0.7-0.1L13,101.5z"/>
		<path class="st2" d="M13.9,102.1l-0.8-0.5l-2,3.2c-0.1,0.2-0.1,0.5,0.2,0.7l0,0c0.2,0.1,0.5,0.1,0.7-0.2L13.9,102.1z"/>
		<path class="st2" d="M14.4,102.9l-0.9-0.4l-1.6,3.3c-0.1,0.2,0,0.5,0.2,0.7l0,0c0.2,0.1,0.5,0,0.7-0.2L14.4,102.9z"/>
		<path class="st2" d="M15.2,102.7l-1-0.3l-1,3.6c-0.1,0.3,0.1,0.5,0.3,0.6l0,0c0.3,0.1,0.5-0.1,0.6-0.3L15.2,102.7z"/>
		<path class="st2" d="M15.7,102.2l-1,0.2l0.4,2.2c0.1,0.3,0.3,0.4,0.6,0.4l0,0c0.3-0.1,0.4-0.3,0.4-0.6L15.7,102.2z"/>
		<path class="st2" d="M15.6,102.8l-0.3,0.7c-0.1,0.1-0.2,0.2-0.3,0.1l-3.1-1.5c-0.1-0.1-0.2-0.2-0.1-0.3l0.3-0.7
			c0.2-0.5,0.8-0.7,1.3-0.5l1.8,0.9C15.7,101.7,15.9,102.3,15.6,102.8z"/>
	</g>
	<path class="st2" d="M30.9,86.6c-0.3,1.1-1.4,1.9-2.5,1.6l0,0l0,0c-1.1-0.3-1.9-1.4-1.6-2.5l0.4-1.8l4.1,1L30.9,86.6z"/>
	<path class="st2" d="M29.4,85.3c-2.9-0.7-5.9-4.1-5.1-7.7l2.5-10.9l13,3l-2.5,10.9C36.5,84.3,33.9,86.4,29.4,85.3z"/>
	
		<rect x="23.7" y="71.7" transform="matrix(0.2249 -0.9744 0.9744 0.2249 -51.6956 81.5125)" class="st0" width="3.4" height="3.1"/>
	<ellipse class="st2" cx="25" cy="74.7" rx="1.9" ry="1.9"/>
	<path class="st0" d="M25,67.9L25,67.9l-0.6,2.5L24,72.5l3.1,0.7l0.2-0.9c0.2-0.6,0.7-1,1.4-0.9l9.1,2.1c1.2,0.3,2.4-0.5,2.7-1.7
		l0,0c0.6-2.4-0.9-4.8-3.3-5.3l-5.3-1.2c-1-0.2-2.1-0.3-3.1-0.2C25.5,65.4,25.2,67.1,25,67.9z"/>
	<path class="st3" d="M35.7,80.5"/>
	<ellipse transform="matrix(0.2245 -0.9745 0.9745 0.2245 -50.1309 89.857)" class="st0" cx="31.4" cy="76.4" rx="0.8" ry="0.4"/>
	<ellipse transform="matrix(0.2245 -0.9745 0.9745 0.2245 -47.1814 96.0128)" class="st0" cx="36.7" cy="77.6" rx="0.8" ry="0.4"/>
</g>
</svg>
